# xmcd
#
# Track frame offsets: 
#        150
#        14451
#        37951
#        52211
#        66047
#        83114
#        106574
#        125645
#        139428
#        159529
#        182978
#        199817
#
# Disc length: 2983 seconds
#
# Revision: 0
# Processed by: cddbd v1.5.2PL0 Copyright (c) Steve Scherf et al.
# Submitted via: ExactAudioCopyFreeDBPlugin 1.0
#
DISCID=a90ba50c
DTITLE=Pete G and The Magnitones - Take Your Pick
DYEAR=1900
DGENRE=Blues
TTITLE0=Everything You Say and Do
TTITLE1=Can't Stop The Boogie
TTITLE2=I Feel So Good
TTITLE3=Ball and Chain
TTITLE4=Fast Boogie
TTITLE5=Midnight Man
TTITLE6=A Thousand Miles
TTITLE7=Long Distance Call
TTITLE8=I'm In Love With Ya Baby
TTITLE9=Take It Easy On Me
TTITLE10=Rock Your Lovin' Daddy
TTITLE11=Mean Old World
EXTD=
EXTT0=
EXTT1=
EXTT2=
EXTT3=
EXTT4=
EXTT5=
EXTT6=
EXTT7=
EXTT8=
EXTT9=
EXTT10=
EXTT11=
PLAYORDER=
